<svg xmlns="http://www.w3.org/2000/svg" viewBox="0 0 679 720" width="679" height="720">
	<style>
		tspan { white-space:pre }
		.shp0 { fill: #000000 }
	</style>
	<g id="flower">
		<path id="Layer" class="shp0" d="M269.38,328.42c6.41,-32.05 6.41,-47.43 -12.82,-66.66c-19.23,-20.51 -38.46,-14.1 -60.25,-51.28c10.26,44.87 39.74,41.02 55.13,65.38c15.38,24.36 16.67,51.28 17.95,52.56zM330.92,291.24c32.05,-8.97 43.59,-16.67 51.28,-43.59c8.97,-28.2 -7.69,-41.02 14.1,-78.2c-33.33,32.05 -16.67,55.13 -29.49,80.77c-12.82,25.64 -35.9,39.74 -35.9,41.02zM395.02,325.85c24.36,21.79 37.18,28.2 64.1,21.79c28.2,-6.41 32.05,-26.92 74.36,-28.2c-43.59,-11.54 -55.13,14.1 -84.61,15.38c-28.2,2.56 -52.56,-10.26 -53.84,-8.97zM400.15,402.77c-7.69,32.05 -7.69,46.15 12.82,66.66c19.23,20.51 38.46,14.1 60.25,50c-11.54,-43.59 -39.74,-41.02 -55.13,-65.38c-15.38,-23.08 -16.67,-50 -17.95,-51.28zM342.46,439.95c-30.77,10.26 -43.59,16.67 -51.28,43.59c-7.69,28.2 7.69,41.02 -12.82,78.2c32.05,-32.05 15.38,-55.13 28.2,-80.77c12.82,-24.36 35.9,-39.74 35.9,-41.02zM284.77,406.62c-24.36,-21.79 -37.18,-29.49 -64.1,-23.08c-28.2,7.69 -32.05,26.92 -74.36,28.2c43.59,11.54 55.13,-14.1 84.61,-15.38c28.2,-1.28 51.28,10.26 53.84,10.26z" />
		<path id="Layer" class="shp0" d="M380.92,301.78c-1.28,1.28 51.28,-19.23 64.1,-65.38c11.54,-39.74 -1.28,-91.02 3.85,-112.82c5.13,-23.08 32.05,-26.92 12.82,-28.2c-41.02,-2.56 -117.94,43.59 -147.43,91.02c-28.2,47.43 -3.85,88.46 -8.97,114.1c-5.13,25.64 -29.49,39.74 -29.49,39.74c0,0 34.61,-11.54 43.59,-37.18c8.97,-24.36 -8.97,-82.05 17.95,-119.23c25.64,-38.46 69.23,-60.25 78.2,-65.38c8.97,-5.13 30.77,-10.26 30.77,-10.26c0,0 -14.1,14.1 -10.26,39.74c2.56,29.49 8.97,102.56 -55.13,153.84zM412.97,367.16c-1.28,0 42.31,35.9 88.46,23.08c41.02,-10.26 78.2,-44.87 100,-52.56c23.08,-6.41 39.74,15.38 30.77,-2.56c-17.95,-37.18 -97.43,-80.77 -152.56,-82.05c-55.13,-1.28 -79.48,39.74 -103.84,48.72c-24.36,7.69 -48.72,-5.13 -48.72,-5.13c0,0 26.92,23.08 53.84,17.95c25.64,-3.85 67.95,-47.43 112.82,-43.59c44.87,3.85 87.18,29.49 96.15,35.9c8.97,5.13 24.36,20.51 24.36,20.51c0,0 -19.23,-5.13 -39.74,10.26c-24.36,17.95 -84.61,60.25 -161.53,29.49zM368.1,426.13c0,-1.28 -8.97,53.84 24.36,88.46c29.49,29.49 79.48,44.87 94.87,58.97c17.95,16.67 7.69,42.31 19.23,25.64c23.08,-34.61 20.51,-124.35 -6.41,-173.07c-25.64,-48.72 -74.36,-48.72 -93.59,-65.38c-19.23,-16.67 -19.23,-44.87 -19.23,-44.87c0,0 -6.41,35.9 10.26,55.13c16.67,20.51 75.64,35.9 94.87,76.92c19.23,41.02 16.67,89.74 16.67,100c0,10.26 -6.41,32.05 -6.41,32.05c0,0 -5.13,-19.23 -28.2,-29.49c-26.92,-11.54 -93.59,-43.59 -106.41,-124.35zM295.02,418.44c0,-2.56 -52.56,19.23 -64.1,64.1c-11.54,41.02 0,91.02 -5.13,112.82c-5.13,23.08 -32.05,26.92 -11.54,28.2c41.02,3.85 117.94,-43.59 146.15,-91.02c28.2,-47.43 5.13,-88.46 10.26,-114.1c5.13,-24.36 28.2,-39.74 28.2,-39.74c0,0 -33.33,11.54 -42.31,37.18c-8.97,24.36 7.69,83.33 -17.95,120.51c-25.64,37.18 -70.51,58.97 -79.48,65.38c-8.97,5.13 -30.77,10.26 -30.77,10.26c0,0 14.1,-14.1 11.54,-41.02c-3.85,-28.2 -8.97,-102.56 55.13,-152.56zM262.97,353.06c2.56,0 -42.31,-34.61 -88.46,-23.08c-39.74,10.26 -76.92,46.15 -98.71,52.56c-23.08,7.69 -39.74,-14.1 -30.77,3.85c17.95,37.18 97.43,79.48 152.56,80.77c55.13,1.28 78.2,-39.74 102.56,-47.43c24.36,-8.97 50,5.13 50,5.13c0,0 -28.2,-24.36 -53.84,-19.23c-25.64,3.85 -67.95,48.72 -112.82,44.87c-46.15,-3.85 -87.18,-30.77 -96.15,-35.9c-8.97,-5.13 -24.36,-21.79 -24.36,-21.79c0,0 19.23,5.13 39.74,-10.26c24.36,-17.95 84.61,-58.97 160.25,-29.49zM306.56,294.09c1.28,1.28 8.97,-53.84 -24.36,-88.46c-29.49,-29.49 -78.2,-44.87 -94.87,-58.97c-17.95,-16.67 -7.69,-42.31 -19.23,-25.64c-23.08,34.61 -20.51,124.35 6.41,173.07c26.92,48.72 74.36,48.72 93.59,65.38c19.23,16.67 20.51,44.87 20.51,44.87c0,0 6.41,-34.61 -11.54,-55.13c-16.67,-20.51 -75.64,-34.61 -94.87,-75.64c-19.23,-42.31 -16.67,-91.02 -16.67,-101.28c0,-10.26 6.41,-32.05 6.41,-32.05c0,0 5.13,19.23 29.49,29.49c26.92,11.54 93.59,43.59 105.12,124.35z" />
	</g>
</svg>
